<svg data-v-d3f97b9e="" xmlns="http://www.w3.org/2000/svg" viewBox="0 0 427 90"><!----><!----><!----><g data-v-d3f97b9e="" id="276aa967-e0ca-4428-8b31-56540d537d1b" fill="black" transform="matrix(4.51467237522152,0,0,4.51467237522152,134.62754433321302,-14.582391381238892)"><path d="M11.89 3.92L8.53 3.92L6.58 11.49L4.63 3.92L1.19 3.92L1.19 13.58L3.39 13.58L3.39 9.30C3.39 8.36 3.39 7.10 3.36 6.10C3.54 7.10 3.86 8.36 4.13 9.28L5.38 13.58L7.70 13.58L8.92 9.28C9.20 8.36 9.52 7.08 9.72 6.09C9.69 7.08 9.69 8.36 9.69 9.30L9.69 13.58L11.89 13.58ZM17.02 5.92C14.55 5.92 13.09 7.52 13.09 9.84C13.09 12.17 14.55 13.78 17.02 13.78C19.49 13.78 20.96 12.17 20.96 9.84C20.96 7.52 19.49 5.92 17.02 5.92ZM17.02 12.26C15.97 12.26 15.34 11.40 15.34 9.84C15.34 8.29 15.97 7.43 17.02 7.43C18.06 7.43 18.69 8.29 18.69 9.84C18.69 11.40 18.06 12.26 17.02 12.26ZM29.33 7.98C29.16 6.68 28.25 5.92 26.68 5.92C25.98 5.92 25.45 6.06 24.95 6.40L24.33 7.29L24.33 6.12L22.13 6.12L22.13 13.58L24.33 13.58L24.33 10.12C24.33 8.22 24.98 7.43 25.84 7.43C26.70 7.43 27.12 7.91 27.17 8.67C27.20 9.04 27.20 9.42 27.20 9.70L27.20 13.58L29.40 13.58L29.40 9.37C29.40 8.76 29.39 8.36 29.33 7.98ZM32.03 3.23C31.25 3.23 30.86 3.58 30.86 4.34C30.86 5.11 31.25 5.46 32.03 5.46C32.80 5.46 33.19 5.11 33.19 4.34C33.19 3.58 32.80 3.23 32.03 3.23ZM33.12 6.12L30.93 6.12L30.93 13.59C30.93 13.80 30.93 14.06 30.90 14.25C30.84 14.87 30.45 15.04 29.57 14.95L29.57 16.48C29.81 16.51 30.07 16.52 30.35 16.52C32.26 16.52 33.00 15.75 33.10 14.48C33.11 14.22 33.12 13.86 33.12 13.57ZM35.84 3.23C35.14 3.23 34.68 3.67 34.68 4.34C34.68 5.03 35.14 5.46 35.84 5.46C36.54 5.46 37.02 5.03 37.02 4.34C37.02 3.67 36.54 3.23 35.84 3.23ZM36.95 13.58L36.95 6.12L34.75 6.12L34.75 13.58ZM43.68 3.98C43.19 3.92 42.97 3.92 42.45 3.92L38.98 3.92L38.98 13.58L42.43 13.58C42.95 13.58 43.18 13.58 43.67 13.52C45.91 13.26 47.71 11.61 47.71 8.62C47.71 5.64 45.92 4.23 43.68 3.98ZM43.13 11.83C42.81 11.86 42.56 11.86 42.15 11.86L41.17 11.86L41.17 5.63L42.17 5.63C42.57 5.63 42.83 5.64 43.15 5.67C44.51 5.82 45.40 6.83 45.40 8.65C45.40 10.51 44.49 11.68 43.13 11.83ZM55.97 9.72C55.97 7.73 54.74 5.92 52.36 5.92C49.99 5.92 48.50 7.63 48.50 9.87C48.50 12.50 50.13 13.78 52.22 13.78C54.04 13.78 55.44 12.87 55.85 11.14L53.68 11.14C53.55 11.84 53.03 12.26 52.26 12.26C51.44 12.26 50.82 11.84 50.69 10.42L55.93 10.42C55.96 10.15 55.97 9.91 55.97 9.72ZM52.26 7.43C53.07 7.43 53.56 7.98 53.69 9.03L50.75 9.03C50.93 7.92 51.48 7.43 52.26 7.43ZM64.61 6.12L62.23 6.12L60.52 11.89L58.80 6.12L56.36 6.12L59.29 13.58L61.70 13.58Z"></path></g><!----><g data-v-d3f97b9e="" id="99fbfb42-e72e-4845-8eab-3ab545b08c36" transform="matrix(7.5,0,0,7.5,0,-15)" stroke="none" fill="black"><path d="M7.969 2L6 13.844 5.969 14h2.063l1.969-11.844.031-.156H7.969zM5 3.813l-.531.344-4 2.5L0 6.938v2.126l.469.281 4 2.5.531.344V9.814L2.094 8.001 5 6.188V3.813zm6 0v2.375l2.906 1.813L11 9.814v2.375l.531-.344 4-2.5.469-.281V6.938l-.469-.281-4-2.5L11 3.813z"></path></g><!----><g data-v-d3f97b9e="" id="bdf4f3c5-7353-44b4-aba9-befb31296060" fill="black" transform="matrix(1.0988554960281935,0,0,1.0988554960281935,139.72527960075695,56.01115564343953)"><path d="M10.81 6.86L10.32 6.86L8.96 6.86L8.96 7.13C8.96 7.28 9.06 7.36 9.24 7.38L9.31 7.38C9.34 7.38 9.37 7.39 9.41 7.39L9.62 7.39C9.72 7.39 9.83 7.41 9.95 7.41L8.32 12.52C8.27 12.63 8.26 12.73 8.23 12.82C8.20 12.92 8.19 13.02 8.18 13.12C8.13 12.92 8.08 12.73 8.01 12.52L6.16 6.97C6.13 6.87 6.06 6.82 5.96 6.82L5.68 6.82C5.59 6.82 5.52 6.87 5.49 6.97L3.63 12.52C3.58 12.63 3.56 12.73 3.53 12.82L3.44 13.12C3.44 13.09 3.42 12.99 3.39 12.82C3.37 12.73 3.35 12.63 3.32 12.52L1.68 7.41C1.83 7.41 1.99 7.39 2.10 7.39C2.21 7.39 2.30 7.38 2.32 7.38L2.41 7.38C2.59 7.36 2.69 7.28 2.69 7.13L2.69 6.86L1.32 6.85L0.80 6.86L0.25 6.86L0.25 7.13C0.25 7.28 0.34 7.36 0.52 7.38L0.59 7.38L0.66 7.38C0.69 7.38 0.73 7.39 0.78 7.39L0.98 7.39L3.14 13.82L3.60 13.82C3.68 13.82 3.74 13.76 3.77 13.66L5.70 8.01C5.73 7.94 5.75 7.88 5.77 7.81L5.81 7.60L5.85 7.81C5.87 7.88 5.89 7.94 5.92 8.01L7.83 13.66C7.85 13.76 7.92 13.82 7.99 13.82L8.48 13.82L10.63 7.39L10.89 7.39C10.98 7.39 11.02 7.38 11.05 7.38L11.12 7.38C11.30 7.36 11.40 7.28 11.40 7.13L11.40 6.86ZM22.22 6.73C21.73 6.73 21.28 6.83 20.89 7.00C20.50 7.17 20.17 7.41 19.91 7.71C19.64 8.02 19.43 8.39 19.29 8.81C19.15 9.23 19.07 9.69 19.07 10.19C19.07 10.78 19.15 11.31 19.31 11.77C19.46 12.24 19.67 12.61 19.95 12.94C20.23 13.26 20.57 13.50 20.96 13.66C21.35 13.83 21.78 13.90 22.26 13.90C22.53 13.90 22.79 13.89 23.04 13.83C23.30 13.78 23.55 13.71 23.77 13.62C24.00 13.54 24.21 13.44 24.39 13.31C24.57 13.19 24.72 13.06 24.84 12.92L24.65 12.70C24.63 12.66 24.57 12.63 24.51 12.63C24.47 12.63 24.39 12.66 24.29 12.74C24.19 12.82 24.05 12.91 23.87 13.01C23.70 13.10 23.48 13.17 23.23 13.26C22.97 13.34 22.67 13.38 22.32 13.38C21.92 13.38 21.57 13.31 21.25 13.17C20.93 13.03 20.66 12.84 20.44 12.57C20.22 12.31 20.05 11.97 19.92 11.58C19.80 11.19 19.74 10.71 19.74 10.19L19.74 10.07L24.77 10.07C24.84 10.07 24.88 10.05 24.91 10.01C24.93 9.97 24.96 9.90 24.96 9.80C24.96 9.31 24.89 8.88 24.75 8.50C24.61 8.12 24.43 7.78 24.18 7.53C23.94 7.28 23.65 7.08 23.31 6.94C22.97 6.80 22.61 6.73 22.22 6.73ZM22.23 7.24C22.55 7.24 22.83 7.29 23.10 7.41C23.37 7.52 23.59 7.67 23.77 7.88C23.95 8.09 24.11 8.33 24.21 8.62C24.30 8.92 24.36 9.25 24.36 9.63L19.77 9.63C19.81 9.27 19.89 8.93 20.02 8.64C20.15 8.34 20.31 8.09 20.52 7.88C20.73 7.67 20.99 7.52 21.27 7.41C21.55 7.29 21.87 7.24 22.23 7.24ZM38.92 7.63C38.44 7.04 37.77 6.73 36.92 6.73C36.41 6.73 35.95 6.86 35.55 7.10C35.14 7.34 34.79 7.66 34.48 8.06L34.47 3.63L33.81 3.63L32.80 3.63L32.80 3.91C32.80 4.06 32.89 4.14 33.07 4.16L33.15 4.16C33.18 4.16 33.21 4.17 33.25 4.17L33.46 4.17C33.56 4.17 33.68 4.19 33.81 4.19L33.81 13.16L33.81 13.51C35.04 13.78 35.97 13.90 36.60 13.90C37.09 13.90 37.52 13.80 37.90 13.62C38.28 13.44 38.58 13.19 38.85 12.87C39.12 12.54 39.30 12.15 39.44 11.72C39.58 11.28 39.63 10.79 39.63 10.29C39.63 9.10 39.40 8.22 38.92 7.63ZM38.79 11.55C38.68 11.93 38.53 12.26 38.32 12.53C38.11 12.81 37.86 13.01 37.55 13.16C37.24 13.31 36.88 13.38 36.47 13.38C36.11 13.38 35.43 13.29 34.47 13.09L34.47 8.62C34.76 8.20 35.10 7.87 35.48 7.63C35.85 7.39 36.26 7.27 36.72 7.27C37.44 7.27 38.00 7.52 38.37 8.01C38.75 8.50 38.95 9.25 38.95 10.29C38.95 10.75 38.91 11.17 38.79 11.55ZM64.82 13.54C64.82 13.38 64.74 13.30 64.55 13.29L64.48 13.29L64.39 13.29C64.34 13.29 64.27 13.27 64.19 13.27L63.88 13.27L63.88 3.63L63.22 3.63L62.22 3.63L62.22 3.91C62.22 4.06 62.31 4.14 62.50 4.16L62.57 4.16C62.59 4.16 62.62 4.17 62.66 4.17L62.89 4.17C62.99 4.17 63.10 4.19 63.22 4.19L63.22 7.76C62.97 7.42 62.68 7.17 62.33 7.00C61.98 6.82 61.57 6.73 61.10 6.73C60.61 6.73 60.17 6.83 59.79 7.01C59.42 7.20 59.11 7.46 58.84 7.78C58.58 8.11 58.39 8.50 58.25 8.93C58.11 9.37 58.06 9.84 58.06 10.35C58.06 11.54 58.30 12.43 58.77 13.02C59.25 13.61 59.92 13.90 60.77 13.90C61.29 13.90 61.75 13.79 62.17 13.54C62.59 13.29 62.94 12.95 63.25 12.53L63.32 13.64C63.34 13.76 63.41 13.82 63.52 13.82L63.88 13.82L64.82 13.82L64.82 13.61ZM63.22 12.01C62.93 12.43 62.59 12.77 62.22 13.01C61.84 13.24 61.43 13.37 60.97 13.37C60.26 13.37 59.70 13.13 59.32 12.64C58.94 12.15 58.74 11.38 58.74 10.35C58.74 9.88 58.79 9.48 58.90 9.10C59.01 8.72 59.16 8.39 59.37 8.12C59.58 7.85 59.84 7.63 60.14 7.48C60.45 7.32 60.82 7.25 61.22 7.25C61.63 7.25 62.01 7.34 62.33 7.50C62.65 7.67 62.96 7.95 63.22 8.34ZM76.05 6.73C75.56 6.73 75.11 6.83 74.72 7.00C74.33 7.17 74.00 7.41 73.74 7.71C73.47 8.02 73.26 8.39 73.12 8.81C72.98 9.23 72.90 9.69 72.90 10.19C72.90 10.78 72.98 11.31 73.14 11.77C73.29 12.24 73.50 12.61 73.78 12.94C74.06 13.26 74.40 13.50 74.79 13.66C75.18 13.83 75.61 13.90 76.09 13.90C76.36 13.90 76.62 13.89 76.87 13.83C77.13 13.78 77.38 13.71 77.60 13.62C77.83 13.54 78.04 13.44 78.22 13.31C78.40 13.19 78.55 13.06 78.67 12.92L78.48 12.70C78.46 12.66 78.40 12.63 78.34 12.63C78.30 12.63 78.22 12.66 78.12 12.74C78.02 12.82 77.88 12.91 77.70 13.01C77.53 13.10 77.31 13.17 77.06 13.26C76.80 13.34 76.50 13.38 76.15 13.38C75.75 13.38 75.40 13.31 75.08 13.17C74.76 13.03 74.49 12.84 74.27 12.57C74.05 12.31 73.88 11.97 73.75 11.58C73.63 11.19 73.57 10.71 73.57 10.19L73.57 10.07L78.60 10.07C78.67 10.07 78.71 10.05 78.74 10.01C78.76 9.97 78.79 9.90 78.79 9.80C78.79 9.31 78.72 8.88 78.58 8.50C78.44 8.12 78.26 7.78 78.01 7.53C77.77 7.28 77.48 7.08 77.14 6.94C76.80 6.80 76.44 6.73 76.05 6.73ZM76.06 7.24C76.38 7.24 76.66 7.29 76.93 7.41C77.20 7.52 77.42 7.67 77.60 7.88C77.78 8.09 77.94 8.33 78.04 8.62C78.13 8.92 78.19 9.25 78.19 9.63L73.60 9.63C73.64 9.27 73.72 8.93 73.85 8.64C73.98 8.34 74.14 8.09 74.35 7.88C74.56 7.67 74.82 7.52 75.10 7.41C75.38 7.29 75.70 7.24 76.06 7.24ZM93.42 6.86L92.90 6.86L91.50 6.86L91.50 7.13C91.50 7.28 91.60 7.36 91.78 7.38L91.87 7.38C91.90 7.38 91.92 7.39 91.97 7.39L92.18 7.39C92.27 7.39 92.39 7.41 92.51 7.41L90.37 12.52C90.33 12.61 90.29 12.73 90.26 12.82C90.23 12.92 90.22 13.02 90.19 13.12C90.17 13.09 90.17 13.05 90.16 12.98C90.15 12.91 90.13 12.85 90.12 12.82C90.09 12.73 90.06 12.63 90.02 12.52L87.88 7.41C88.03 7.41 88.19 7.39 88.30 7.39C88.41 7.39 88.49 7.38 88.52 7.38L88.61 7.38C88.79 7.36 88.89 7.28 88.89 7.13L88.89 6.86L87.47 6.86L86.95 6.86L86.45 6.86L86.45 7.13C86.45 7.28 86.53 7.36 86.72 7.38C86.72 7.38 86.87 7.38 87.18 7.39L89.89 13.82L90.48 13.82L93.18 7.39L93.45 7.39C93.53 7.39 93.58 7.38 93.60 7.38L93.67 7.38C93.86 7.36 93.95 7.28 93.95 7.13L93.95 6.86ZM104.86 6.73C104.37 6.73 103.92 6.83 103.53 7.00C103.14 7.17 102.82 7.41 102.55 7.71C102.28 8.02 102.07 8.39 101.93 8.81C101.79 9.23 101.71 9.69 101.71 10.19C101.71 10.78 101.79 11.31 101.95 11.77C102.10 12.24 102.31 12.61 102.59 12.94C102.87 13.26 103.21 13.50 103.60 13.66C103.99 13.83 104.43 13.90 104.90 13.90C105.17 13.90 105.43 13.89 105.69 13.83C105.94 13.78 106.19 13.71 106.41 13.62C106.64 13.54 106.85 13.44 107.03 13.31C107.21 13.19 107.37 13.06 107.48 12.92L107.30 12.70C107.27 12.66 107.21 12.63 107.16 12.63C107.11 12.63 107.03 12.66 106.93 12.74C106.83 12.82 106.69 12.91 106.51 13.01C106.34 13.10 106.12 13.17 105.87 13.26C105.62 13.34 105.31 13.38 104.96 13.38C104.57 13.38 104.22 13.31 103.89 13.17C103.57 13.03 103.31 12.84 103.08 12.57C102.86 12.31 102.69 11.97 102.56 11.58C102.44 11.19 102.38 10.71 102.38 10.19L102.38 10.07L107.41 10.07C107.48 10.07 107.52 10.05 107.55 10.01C107.58 9.97 107.60 9.90 107.60 9.80C107.60 9.31 107.53 8.88 107.39 8.50C107.25 8.12 107.07 7.78 106.82 7.53C106.58 7.28 106.29 7.08 105.95 6.94C105.62 6.80 105.25 6.73 104.86 6.73ZM104.87 7.24C105.20 7.24 105.48 7.29 105.74 7.41C106.01 7.52 106.23 7.67 106.41 7.88C106.60 8.09 106.75 8.33 106.85 8.62C106.95 8.92 107.00 9.25 107.00 9.63L102.41 9.63C102.45 9.27 102.54 8.93 102.66 8.64C102.79 8.34 102.96 8.09 103.17 7.88C103.38 7.67 103.63 7.52 103.91 7.41C104.19 7.29 104.51 7.24 104.87 7.24ZM118.23 13.29L118.16 13.29L118.05 13.29C118.01 13.29 117.94 13.27 117.84 13.27C117.74 13.27 117.63 13.26 117.50 13.26L117.50 3.63L116.83 3.63L115.82 3.63L115.82 3.91C115.82 4.06 115.92 4.14 116.10 4.16L116.17 4.16C116.20 4.16 116.24 4.17 116.28 4.17L116.49 4.17C116.59 4.17 116.70 4.19 116.83 4.19L116.83 13.26C116.68 13.26 116.54 13.29 116.42 13.29L116.19 13.29L116.10 13.29C115.92 13.30 115.82 13.38 115.82 13.54L115.82 13.82L116.83 13.82L117.50 13.82L118.51 13.82L118.51 13.54C118.51 13.38 118.41 13.30 118.23 13.29ZM129.77 6.73C129.26 6.73 128.81 6.83 128.42 7.00C128.03 7.17 127.69 7.41 127.41 7.71C127.13 8.02 126.94 8.40 126.80 8.85C126.66 9.30 126.57 9.79 126.57 10.33C126.57 10.88 126.66 11.37 126.80 11.80C126.94 12.24 127.13 12.63 127.41 12.94C127.69 13.24 128.03 13.48 128.42 13.65C128.81 13.82 129.26 13.90 129.77 13.90C130.27 13.90 130.70 13.82 131.10 13.65C131.49 13.48 131.82 13.24 132.09 12.94C132.36 12.63 132.58 12.24 132.72 11.80C132.86 11.37 132.93 10.88 132.93 10.33C132.93 9.79 132.86 9.30 132.72 8.85C132.58 8.40 132.36 8.02 132.09 7.71C131.82 7.41 131.49 7.17 131.10 7.00C130.70 6.83 130.27 6.73 129.77 6.73ZM129.77 13.38C129.35 13.38 128.98 13.31 128.67 13.17C128.37 13.03 128.10 12.82 127.89 12.56C127.68 12.29 127.54 11.97 127.43 11.59C127.32 11.21 127.27 10.79 127.27 10.33C127.27 9.87 127.32 9.45 127.43 9.07C127.54 8.69 127.68 8.37 127.89 8.11C128.10 7.84 128.37 7.62 128.67 7.48C128.98 7.34 129.35 7.27 129.77 7.27C130.19 7.27 130.54 7.34 130.84 7.48C131.15 7.62 131.42 7.84 131.63 8.11C131.84 8.37 131.99 8.69 132.09 9.07C132.19 9.45 132.24 9.87 132.24 10.33C132.24 10.79 132.19 11.21 132.09 11.59C131.99 11.97 131.84 12.29 131.63 12.56C131.42 12.82 131.15 13.03 130.84 13.17C130.54 13.31 130.19 13.38 129.77 13.38ZM146.87 7.63C146.40 7.04 145.73 6.73 144.87 6.73C144.35 6.73 143.91 6.86 143.49 7.11C143.08 7.36 142.72 7.69 142.41 8.11L142.34 7.03C142.34 6.96 142.32 6.92 142.28 6.89C142.24 6.86 142.18 6.86 142.13 6.86L141.76 6.86L140.76 6.86L140.76 7.13C140.76 7.28 140.85 7.36 141.04 7.38L141.11 7.38C141.13 7.38 141.18 7.39 141.22 7.39L141.43 7.39C141.53 7.39 141.64 7.41 141.76 7.41L141.76 15.72C141.61 15.72 141.47 15.75 141.36 15.75L141.12 15.75L141.04 15.75C140.85 15.76 140.76 15.85 140.76 16.00L140.76 16.28L141.76 16.28L142.44 16.28L143.44 16.28L143.44 16.00C143.44 15.85 143.35 15.76 143.16 15.75L143.09 15.75L142.98 15.75C142.94 15.75 142.87 15.74 142.77 15.74C142.67 15.74 142.56 15.72 142.44 15.72L142.44 12.88C142.69 13.22 142.98 13.48 143.33 13.65C143.68 13.82 144.09 13.90 144.56 13.90C145.05 13.90 145.47 13.80 145.85 13.62C146.23 13.44 146.55 13.19 146.80 12.87C147.06 12.54 147.27 12.15 147.39 11.72C147.53 11.28 147.59 10.79 147.59 10.29C147.59 9.10 147.35 8.22 146.87 7.63ZM146.75 11.55C146.65 11.93 146.48 12.25 146.27 12.53C146.06 12.81 145.81 13.01 145.50 13.16C145.19 13.31 144.83 13.38 144.42 13.38C144.00 13.38 143.64 13.30 143.32 13.13C143.00 12.96 142.70 12.70 142.44 12.29L142.44 8.64C142.73 8.20 143.05 7.87 143.43 7.63C143.81 7.39 144.23 7.28 144.69 7.28C145.40 7.28 145.95 7.52 146.33 8.01C146.71 8.50 146.90 9.25 146.90 10.29C146.90 10.75 146.86 11.17 146.75 11.55ZM166.64 13.29L166.56 13.29L166.46 13.29C166.42 13.29 166.35 13.27 166.25 13.27C166.15 13.27 166.03 13.26 165.90 13.26L165.90 9.37C165.90 8.95 165.84 8.57 165.75 8.25C165.65 7.92 165.51 7.64 165.31 7.42C165.12 7.20 164.88 7.03 164.60 6.92C164.32 6.80 164.02 6.75 163.67 6.75C163.44 6.75 163.18 6.78 162.96 6.85C162.74 6.92 162.53 7.01 162.33 7.15C162.13 7.29 161.95 7.46 161.80 7.67C161.64 7.88 161.53 8.13 161.45 8.43C161.34 7.90 161.14 7.48 160.83 7.18C160.52 6.89 160.12 6.75 159.61 6.75C159.39 6.75 159.18 6.76 158.98 6.83C158.79 6.89 158.61 6.99 158.42 7.10C158.26 7.21 158.09 7.36 157.93 7.52C157.78 7.67 157.64 7.84 157.50 8.04L157.44 7.03C157.43 6.92 157.36 6.86 157.23 6.86L156.87 6.86L155.86 6.86L155.86 7.13C155.86 7.28 155.95 7.36 156.13 7.38L156.21 7.38C156.24 7.38 156.27 7.39 156.31 7.39L156.52 7.39C156.62 7.39 156.74 7.41 156.87 7.41L156.87 13.26C156.70 13.26 156.56 13.29 156.45 13.29L156.23 13.29L156.13 13.29C155.95 13.30 155.86 13.38 155.86 13.54L155.86 13.82L156.87 13.82L157.53 13.82L158.54 13.82L158.54 13.54C158.54 13.38 158.45 13.30 158.27 13.29L158.19 13.29L158.09 13.29C158.05 13.29 157.98 13.27 157.88 13.27C157.78 13.27 157.65 13.26 157.53 13.26L157.53 8.55C157.78 8.15 158.07 7.84 158.40 7.62C158.72 7.39 159.07 7.28 159.45 7.28C159.96 7.28 160.36 7.45 160.62 7.81C160.89 8.18 161.03 8.69 161.03 9.37L161.03 13.82L161.70 13.82L161.70 13.82L162.71 13.82L162.71 13.54C162.71 13.38 162.61 13.30 162.43 13.29L162.36 13.29L162.25 13.29C162.20 13.29 162.13 13.27 162.04 13.27C161.94 13.27 161.83 13.26 161.70 13.26L161.70 9.37C161.70 9.02 161.74 8.72 161.84 8.46C161.94 8.19 162.08 7.97 162.25 7.80C162.41 7.63 162.61 7.49 162.83 7.41C163.06 7.32 163.30 7.28 163.53 7.28C164.08 7.28 164.50 7.46 164.79 7.81C165.09 8.18 165.24 8.68 165.24 9.37L165.24 13.82L165.90 13.82L166.91 13.82L166.91 13.54C166.91 13.38 166.82 13.30 166.64 13.29ZM178.18 6.73C177.69 6.73 177.24 6.83 176.85 7.00C176.46 7.17 176.13 7.41 175.87 7.71C175.60 8.02 175.39 8.39 175.25 8.81C175.11 9.23 175.03 9.69 175.03 10.19C175.03 10.78 175.11 11.31 175.27 11.77C175.42 12.24 175.63 12.61 175.91 12.94C176.19 13.26 176.53 13.50 176.92 13.66C177.31 13.83 177.74 13.90 178.22 13.90C178.49 13.90 178.75 13.89 179.00 13.83C179.26 13.78 179.51 13.71 179.73 13.62C179.96 13.54 180.17 13.44 180.35 13.31C180.53 13.19 180.68 13.06 180.80 12.92L180.61 12.70C180.59 12.66 180.53 12.63 180.47 12.63C180.43 12.63 180.35 12.66 180.25 12.74C180.15 12.82 180.01 12.91 179.83 13.01C179.66 13.10 179.44 13.17 179.19 13.26C178.93 13.34 178.63 13.38 178.28 13.38C177.88 13.38 177.53 13.31 177.21 13.17C176.89 13.03 176.62 12.84 176.40 12.57C176.18 12.31 176.01 11.97 175.88 11.58C175.76 11.19 175.70 10.71 175.70 10.19L175.70 10.07L180.73 10.07C180.80 10.07 180.84 10.05 180.87 10.01C180.89 9.97 180.92 9.90 180.92 9.80C180.92 9.31 180.85 8.88 180.71 8.50C180.57 8.12 180.39 7.78 180.14 7.53C179.90 7.28 179.61 7.08 179.27 6.94C178.93 6.80 178.57 6.73 178.18 6.73ZM178.19 7.24C178.51 7.24 178.79 7.29 179.06 7.41C179.33 7.52 179.55 7.67 179.73 7.88C179.91 8.09 180.07 8.33 180.17 8.62C180.26 8.92 180.32 9.25 180.32 9.63L175.73 9.63C175.77 9.27 175.85 8.93 175.98 8.64C176.11 8.34 176.27 8.09 176.48 7.88C176.69 7.67 176.95 7.52 177.23 7.41C177.51 7.29 177.83 7.24 178.19 7.24ZM196.39 13.29L196.32 13.29L196.21 13.29C196.17 13.29 196.10 13.27 196.00 13.27C195.90 13.27 195.79 13.26 195.66 13.26L195.66 9.37C195.66 8.96 195.61 8.60 195.51 8.27C195.41 7.95 195.27 7.67 195.08 7.45C194.88 7.22 194.64 7.06 194.35 6.93C194.05 6.80 193.72 6.75 193.34 6.75C192.82 6.75 192.35 6.87 191.93 7.11C191.51 7.36 191.14 7.67 190.82 8.08L190.76 7.03C190.75 6.92 190.68 6.86 190.55 6.86L190.19 6.86L189.18 6.86L189.18 7.13C189.18 7.28 189.27 7.36 189.45 7.38L189.53 7.38C189.56 7.38 189.59 7.39 189.63 7.39L189.84 7.39C189.94 7.39 190.06 7.41 190.19 7.41L190.19 13.26C190.02 13.26 189.88 13.29 189.77 13.29L189.55 13.29L189.45 13.29C189.27 13.30 189.18 13.38 189.18 13.54L189.18 13.82L190.19 13.82L190.85 13.82L191.86 13.82L191.86 13.54C191.86 13.38 191.77 13.30 191.59 13.29L191.51 13.29L191.41 13.29C191.37 13.29 191.30 13.27 191.20 13.27C191.10 13.27 190.97 13.26 190.85 13.26L190.85 8.60C191.16 8.19 191.51 7.87 191.90 7.63C192.29 7.39 192.71 7.28 193.17 7.28C193.79 7.28 194.25 7.46 194.54 7.83C194.84 8.20 194.99 8.71 194.99 9.37L194.99 13.82L195.66 13.82L196.67 13.82L196.67 13.54C196.67 13.38 196.57 13.30 196.39 13.29ZM207.17 13.93C207.47 13.93 207.75 13.86 208.03 13.75C208.29 13.64 208.52 13.48 208.70 13.29L208.52 12.98C208.47 12.94 208.45 12.92 208.40 12.92C208.38 12.92 208.32 12.94 208.26 12.99C208.21 13.05 208.14 13.09 208.05 13.15C207.97 13.20 207.86 13.26 207.73 13.31C207.61 13.37 207.48 13.38 207.31 13.38C207.17 13.38 207.03 13.36 206.92 13.31C206.81 13.27 206.71 13.20 206.63 13.12C206.54 13.03 206.47 12.92 206.42 12.78C206.36 12.64 206.35 12.49 206.35 12.29L206.35 7.57L208.54 7.57L208.54 7.07L206.35 7.07L206.35 4.41L206.02 4.41C205.97 4.41 205.94 4.44 205.91 4.47C205.88 4.49 205.86 4.54 205.86 4.58L205.69 7.07L204.50 7.15L204.50 7.41C204.50 7.46 204.51 7.49 204.54 7.52C204.57 7.55 204.62 7.57 204.68 7.57L205.67 7.57L205.67 12.33C205.67 12.88 205.80 13.27 206.07 13.54C206.33 13.80 206.70 13.93 207.17 13.93Z"></path></g></svg>